<?xml version="1.0" encoding="UTF-8"?>
<svg width="16px" height="18px" viewBox="0 0 16 18" version="1.1" xmlns="http://www.w3.org/2000/svg" xmlns:xlink="http://www.w3.org/1999/xlink">
    <title>noun_Calendar_1757904</title>
    <g id="Order-List" stroke="none" stroke-width="1" fill="none" fill-rule="evenodd">
        <g id="Desktop-HD-Copy" transform="translate(-655.000000, -375.000000)" fill="#56A8FE" fill-rule="nonzero">
            <g id="Group-14" transform="translate(80.000000, 309.000000)">
                <g id="Group-13" transform="translate(0.000000, 50.000000)">
                    <g id="Group-9" transform="translate(575.000000, 16.000000)">
                        <g id="noun_Calendar_1757904">
                            <path d="M13.3894737,1.74006445 L11.7221053,1.74006445 L11.7221053,0.792696026 C11.7221053,0.367346939 11.4189474,0 11.0315789,0 C10.6610526,0 10.3410526,0.348012889 10.3410526,0.792696026 L10.3410526,1.74006445 L5.64210526,1.74006445 L5.64210526,0.792696026 C5.64210526,0.367346939 5.33894737,0 4.95157895,0 C4.56421053,0 4.26105263,0.348012889 4.26105263,0.792696026 L4.26105263,1.74006445 L2.61052632,1.74006445 C1.16210526,1.74006445 0,3.09344791 0,4.73684211 L0,15.0032223 C0,16.6659506 1.17894737,18 2.61052632,18 L13.3894737,18 C14.8378947,18 16,16.6466165 16,15.0032223 L16,4.73684211 C16,3.09344791 14.8210526,1.74006445 13.3894737,1.74006445 Z M2.61052632,3.30612245 L4.27789474,3.30612245 L4.27789474,4.25349087 C4.27789474,4.67883996 4.58105263,5.0461869 4.96842105,5.0461869 C5.35578947,5.0461869 5.65894737,4.69817401 5.65894737,4.25349087 L5.65894737,3.30612245 L10.3747368,3.30612245 L10.3747368,4.25349087 C10.3747368,4.67883996 10.6778947,5.0461869 11.0652632,5.0461869 C11.4357895,5.0461869 11.7557895,4.69817401 11.7557895,4.25349087 L11.7557895,3.30612245 L13.3894737,3.30612245 C14.08,3.30612245 14.6357895,3.94414608 14.6357895,4.73684211 L14.6357895,6.5735768 L1.36421053,6.5735768 L1.36421053,4.73684211 C1.36421053,3.94414608 1.92,3.30612245 2.61052632,3.30612245 Z M13.3894737,16.433942 L2.61052632,16.433942 C1.92,16.433942 1.36421053,15.7959184 1.36421053,15.0032223 L1.36421053,8.15896885 L14.6357895,8.15896885 L14.6357895,15.0032223 C14.6357895,15.7959184 14.08,16.433942 13.3894737,16.433942 Z" id="Shape"></path>
                        </g>
                    </g>
                </g>
            </g>
        </g>
    </g>
</svg>