<svg width="11" height="11" viewBox="0 0 11 11" fill="none" xmlns="http://www.w3.org/2000/svg">
<path d="M10.4087 9.51755C10.5842 9.69298 10.6719 9.90497 10.6719 10.1535C10.6719 10.3728 10.5915 10.5629 10.4306 10.7237C10.2698 10.8845 10.0798 10.9649 9.86047 10.9649C9.62655 10.9649 9.41457 10.8626 9.22451 10.6579L5.67187 6.60088L2.14117 10.6579C1.95111 10.8626 1.73913 10.9649 1.50521 10.9649C1.28591 10.9649 1.08854 10.8845 0.913103 10.7237C0.752284 10.5629 0.671875 10.3655 0.671875 10.1316C0.671875 9.91228 0.759594 9.7076 0.935033 9.51755L4.57538 5.41667L1.08854 1.44737C0.913103 1.24269 0.825384 1.03801 0.825384 0.833333C0.825384 0.599415 0.905793 0.402047 1.06661 0.241229C1.24205 0.0804101 1.43211 0 1.63679 0C1.87071 0 2.08269 0.10234 2.27275 0.307019L5.67187 4.21053L9.071 0.307019C9.26106 0.10234 9.47304 0 9.70696 0C9.92626 0 10.1163 0.0804101 10.2771 0.241229C10.438 0.402047 10.5184 0.592106 10.5184 0.811405C10.5184 1.05994 10.4306 1.27193 10.2552 1.44737L6.76837 5.41667L10.4087 9.51755Z" fill="white"/>
</svg>
