<?xml version="1.0" encoding="UTF-8"?>
<svg width="20px" height="20px" viewBox="0 0 20 20" version="1.1" xmlns="http://www.w3.org/2000/svg" xmlns:xlink="http://www.w3.org/1999/xlink">
    <title>Mask 2</title>
    <defs>
        <path d="M16.11,9.82 C16.1679366,9.33840287 16.1679366,8.85159713 16.11,8.37 L18.22,7.49 L16.64,3.8 L14.53,4.68 C14.2372532,4.30841111 13.9015889,3.97274675 13.53,3.68 L14.4,1.57 L10.7,0.05 L9.8,2.12 C9.32136096,2.06888202 8.83863904,2.06888202 8.36,2.12 L7.47,8.8817842e-15 L3.79,1.59 L4.68,3.71 C4.31276758,4.00761687 3.97761687,4.34276758 3.68,4.71 L1.54,3.85 L0.02,7.55 L2.11,8.42 C2.05206336,8.90159713 2.05206336,9.38840287 2.11,9.87 L-9.9475983e-14,10.75 L1.54,14.44 L3.66,13.55 C3.95809839,13.9167984 4.29320161,14.2519016 4.66,14.55 L3.79,16.67 L7.49,18.19 L8.41,16.12 C8.89155608,16.1786175 9.37844392,16.1786175 9.86,16.12 L10.74,18.23 L14.43,16.69 L13.55,14.58 C13.9215889,14.2872532 14.2572532,13.9515889 14.55,13.58 L16.66,14.45 L18.18,10.75 L16.11,9.82 Z M9.11,14.12 C6.34857625,14.12 4.11,11.8814237 4.11,9.12 C4.11,6.35857625 6.34857625,4.12 9.11,4.12 C11.8714237,4.12 14.11,6.35857625 14.11,9.12 C14.11,11.8814237 11.8714237,14.12 9.11,14.12 L9.11,14.12 Z M9.11,11.12 C10.2145695,11.12 11.11,10.2245695 11.11,9.12 C11.11,8.0154305 10.2145695,7.12 9.11,7.12 C8.0054305,7.12 7.11,8.0154305 7.11,9.12 C7.11,10.2245695 8.0054305,11.12 9.11,11.12 Z" id="path-1"></path>
    </defs>
    <g id="Intial" stroke="none" stroke-width="1" fill="none" fill-rule="evenodd">
        <g id="Desktop-HD" transform="translate(-1115.000000, -239.000000)">
            <g id="Mask-2" transform="translate(1115.890000, 239.880000)">
                <mask id="mask-2" fill="white">
                    <use xlink:href="#path-1"></use>
                </mask>
                <use id="Mask" fill="#fff" xlink:href="#path-1"></use>
            </g>
        </g>
    </g>
</svg>