<?xml version="1.0" encoding="UTF-8"?>
<svg width="31px" height="31px" viewBox="0 0 31 31" version="1.1" xmlns="http://www.w3.org/2000/svg" xmlns:xlink="http://www.w3.org/1999/xlink">
    <title>delete</title>
    <g id="Order-List" stroke="none" stroke-width="1" fill="none" fill-rule="evenodd">
        <g id="Desktop-HD-Copy" transform="translate(-1075.000000, -153.000000)">
            <g id="delete" transform="translate(1076.000000, 154.000000)">
                <g id="noun_Delete_1640156" transform="translate(6.000000, 6.000000)" fill="#FF7979" fill-rule="nonzero">
                    <g id="Group">
                        <path d="M12.573953,5.9319564 C12.573953,6.23820998 12.573953,6.54641423 12.573953,6.85266781 C12.573953,7.58806655 12.573953,8.32346529 12.573953,9.05691337 C12.573953,9.93861159 12.573953,10.8203098 12.573953,11.702008 C12.573953,12.458864 12.573953,13.2137694 12.573953,13.9706254 C12.573953,14.3256454 12.5778543,14.6806655 12.573953,15.0356856 C12.573953,15.0825014 12.5700516,15.1312679 12.5641997,15.1780838 C12.573953,15.1098107 12.5837063,15.0395869 12.5915089,14.9713138 C12.5798049,15.0590935 12.556397,15.1410212 12.5251865,15.2229489 C12.550545,15.1605278 12.5778543,15.0981067 12.6032129,15.0356856 C12.5661503,15.1234653 12.5193345,15.2034423 12.4627653,15.2795181 C12.5037292,15.2268503 12.5446931,15.1741824 12.5856569,15.1215146 C12.5329891,15.1878371 12.4725186,15.2483075 12.4061962,15.3009753 C12.458864,15.2600115 12.5115318,15.2190476 12.5641997,15.1780838 C12.4881239,15.2346529 12.4081469,15.2814687 12.3203672,15.3185313 C12.3827883,15.2931727 12.4452094,15.2658635 12.5076305,15.2405049 C12.4257028,15.2736661 12.3418244,15.2951234 12.2559954,15.3068273 C12.3242685,15.297074 12.3944923,15.2873207 12.4627653,15.2795181 C12.3535284,15.2931727 12.2423408,15.2892714 12.1311532,15.2892714 C11.9302352,15.2892714 11.7273666,15.2892714 11.5264487,15.2892714 C10.853471,15.2892714 10.1785427,15.2892714 9.50556512,15.2892714 C8.68238669,15.2892714 7.85920826,15.2892714 7.03602983,15.2892714 C6.33184165,15.2892714 5.62570281,15.2892714 4.92151463,15.2892714 C4.59185313,15.2892714 4.26219162,15.2931727 3.93253012,15.2892714 C3.88571429,15.2892714 3.83889845,15.2853701 3.79013196,15.2795181 C3.85840505,15.2892714 3.9286288,15.2990247 3.99690189,15.3068273 C3.9091222,15.2951234 3.82719449,15.2717154 3.74526678,15.2405049 C3.80768789,15.2658635 3.87010901,15.2931727 3.93253012,15.3185313 C3.84475043,15.2814687 3.76477338,15.2346529 3.68869765,15.1780838 C3.74136546,15.2190476 3.79403328,15.2600115 3.84670109,15.3009753 C3.78037866,15.2483075 3.7199082,15.1878371 3.66724039,15.1215146 C3.70820425,15.1741824 3.7491681,15.2268503 3.79013196,15.2795181 C3.73356282,15.2034423 3.68674699,15.1234653 3.64968445,15.0356856 C3.67504303,15.0981067 3.70235227,15.1605278 3.72771084,15.2229489 C3.69454963,15.1410212 3.67309237,15.0571429 3.66138841,14.9713138 C3.67114171,15.0395869 3.68089501,15.1098107 3.68869765,15.1780838 C3.67504303,15.0629948 3.67894435,14.9459552 3.67894435,14.8289157 C3.67894435,14.6143431 3.67894435,14.3978199 3.67894435,14.1832473 C3.67894435,13.4595525 3.67894435,12.7339071 3.67894435,12.0102123 C3.67894435,11.1285141 3.67894435,10.2468158 3.67894435,9.36706827 C3.67894435,8.60240964 3.67894435,7.83580034 3.67894435,7.07114171 C3.67894435,6.69661503 3.68479633,6.32208835 3.67894435,5.94756168 C3.67894435,5.9417097 3.67894435,5.93780838 3.67894435,5.9319564 C3.67894435,5.5242685 3.32002295,5.13218589 2.89868044,5.15169248 C2.47538726,5.17119908 2.11841652,5.49500861 2.11841652,5.9319564 C2.11841652,6.1211704 2.11841652,6.31038439 2.11841652,6.49959839 C2.11841652,6.98336202 2.11841652,7.46907631 2.11841652,7.95283993 C2.11841652,8.60045898 2.11841652,9.24807803 2.11841652,9.89569707 C2.11841652,10.5803787 2.11841652,11.2631096 2.11841652,11.9477912 C2.11841652,12.5427424 2.11841652,13.1376936 2.11841652,13.7326449 C2.11841652,14.1052209 2.11841652,14.4777969 2.11841652,14.8503729 C2.11841652,14.9147447 2.11841652,14.9791165 2.11841652,15.0415376 C2.1242685,15.6794033 2.4636833,16.2841079 3.01767068,16.6059667 C3.43121056,16.8478485 3.86425703,16.8517499 4.3168101,16.8517499 C4.77326449,16.8517499 5.23166954,16.8517499 5.68812392,16.8517499 C6.33184165,16.8517499 6.97555938,16.8517499 7.61927711,16.8517499 C8.30200803,16.8517499 8.98668962,16.8517499 9.66942054,16.8517499 C10.2351119,16.8517499 10.8027539,16.8517499 11.3684452,16.8517499 C11.6707975,16.8517499 11.9731497,16.8517499 12.275502,16.8517499 C12.6207688,16.8517499 12.9718876,16.7737235 13.2664372,16.5864601 C13.800918,16.248996 14.1266781,15.6735513 14.1325301,15.0395869 C14.1344808,14.8191624 14.1325301,14.5987378 14.1325301,14.3783133 C14.1325301,13.8769937 14.1325301,13.3756741 14.1325301,12.8724039 C14.1325301,12.2130809 14.1325301,11.5557085 14.1325301,10.8963855 C14.1325301,10.2156053 14.1325301,9.53482501 14.1325301,8.85404475 C14.1325301,8.2746988 14.1325301,7.6973035 14.1325301,7.11795754 C14.1325301,6.76878944 14.1325301,6.41962134 14.1325301,6.07045324 C14.1325301,6.02363741 14.1325301,5.97682157 14.1325301,5.93000574 C14.1325301,5.52231784 13.7736087,5.13023523 13.3522662,5.14974182 C12.9309237,5.17119908 12.573953,5.49500861 12.573953,5.9319564 L12.573953,5.9319564 Z" id="Path"></path>
                        <path d="M15.4102123,2.49684452 C15.0395869,2.49684452 14.6670109,2.49684452 14.2963855,2.49684452 C13.611704,2.49684452 12.928973,2.49684452 12.2442915,2.49684452 C11.8814687,2.49684452 11.518646,2.49684452 11.1558233,2.49684452 C10.865175,2.49684452 10.5745267,2.49684452 10.2838784,2.49684452 C9.64406196,2.49684452 9.00619621,2.49684452 8.3663798,2.49684452 C7.68950086,2.49684452 7.01262192,2.49684452 6.33379231,2.49684452 C5.93780838,2.49684452 5.54182444,2.49684452 5.1458405,2.49684452 C4.89810671,2.49684452 4.65232358,2.49684452 4.40458979,2.49684452 C3.73356282,2.49684452 3.06448652,2.49684452 2.39345955,2.49684452 C1.88823867,2.49684452 1.38496845,2.49684452 0.879747562,2.49684452 C0.852438325,2.49684452 0.825129088,2.49684452 0.797819851,2.49684452 C0.390131956,2.49684452 -0.00195065978,2.85576592 0.017555938,3.27710843 C0.0370625359,3.70040161 0.36087206,4.05737235 0.797819851,4.05737235 C1.16844521,4.05737235 1.53907057,4.05737235 1.90969593,4.05737235 C2.59632817,4.05737235 3.28100975,4.05737235 3.967642,4.05737235 C4.34216867,4.05737235 4.71474469,4.05737235 5.08927137,4.05737235 C5.37016638,4.05737235 5.65106139,4.05737235 5.93390706,4.05737235 C6.56982215,4.05737235 7.20378657,4.05737235 7.83970166,4.05737235 C8.51853127,4.05737235 9.19931153,4.05737235 9.87814114,4.05737235 C10.2819277,4.05737235 10.6857143,4.05737235 11.0895009,4.05737235 C11.329432,4.05737235 11.5713138,4.05737235 11.811245,4.05737235 C12.4783706,4.05737235 13.1454963,4.05737235 13.8106713,4.05737235 C14.3158921,4.05737235 14.821113,4.05737235 15.3263339,4.05737235 C15.3536431,4.05737235 15.3809524,4.05737235 15.4082616,4.05737235 C15.8159495,4.05737235 16.2080321,3.69845095 16.1885255,3.27710843 C16.1709696,2.85381526 15.8471601,2.49684452 15.4102123,2.49684452 L15.4102123,2.49684452 Z" id="Path"></path>
                        <path d="M5.83247275,3.27710843 C5.83247275,2.70946644 5.83247275,2.14182444 5.83247275,1.57418244 C5.83247275,1.48445209 5.82857143,1.39277108 5.83637407,1.30304073 C5.82662077,1.37131383 5.81686747,1.44153758 5.80906483,1.50981067 C5.81491681,1.4649455 5.82662077,1.42398164 5.84222605,1.38301779 C5.81686747,1.4454389 5.78955823,1.50786001 5.76419966,1.57028112 C5.78565691,1.52151463 5.81101549,1.47664945 5.84417671,1.43373494 C5.80321285,1.48640275 5.762249,1.53907057 5.72128514,1.59173838 C5.75639702,1.54882387 5.79345955,1.51176133 5.83442341,1.47860011 C5.78175559,1.51956397 5.72908778,1.56052783 5.67641997,1.60149168 C5.72713712,1.56247849 5.78175559,1.53126793 5.84027539,1.50590935 C5.77785427,1.53126793 5.71543316,1.55857717 5.65301205,1.58393574 C5.7037292,1.56442915 5.75639702,1.55077453 5.81101549,1.54102123 C5.7427424,1.55077453 5.67251865,1.56052783 5.60424555,1.56833046 C5.78370625,1.54687321 5.97096959,1.56247849 6.15043029,1.56247849 C6.54446357,1.56247849 6.93849684,1.56247849 7.33057946,1.56247849 C8.2259323,1.56247849 9.1232358,1.56247849 10.0185886,1.56247849 C10.2370625,1.56247849 10.4652897,1.54297189 10.681813,1.56833046 C10.6135399,1.55857717 10.5433161,1.54882387 10.475043,1.54102123 C10.5160069,1.54882387 10.5569707,1.55857717 10.5959839,1.57418244 C10.5335628,1.54882387 10.4711417,1.52151463 10.4087206,1.49615605 C10.4535858,1.51566265 10.4945496,1.53907057 10.5335628,1.57028112 C10.480895,1.52931727 10.4282272,1.48835341 10.3755594,1.44738956 C10.4067699,1.47274814 10.4340792,1.50200803 10.4613884,1.53321859 C10.4204246,1.48055077 10.3794607,1.42788296 10.3384968,1.37521515 C10.3677567,1.41422834 10.3931153,1.45714286 10.4145726,1.50200803 C10.389214,1.43958692 10.3619048,1.37716581 10.3365462,1.31474469 C10.3599541,1.37131383 10.3736087,1.4259323 10.383362,1.48640275 C10.3736087,1.41812966 10.3638554,1.34790591 10.3560528,1.27963282 C10.3794607,1.50786001 10.3599541,1.7458405 10.3599541,1.97601836 C10.3599541,2.32713712 10.3599541,2.67825588 10.3599541,3.02937464 C10.3599541,3.11325301 10.3599541,3.19713138 10.3599541,3.28100975 C10.3599541,3.68869765 10.7188755,4.08078026 11.140218,4.06127367 C11.5635112,4.04176707 11.9204819,3.71795754 11.9204819,3.28100975 C11.9204819,2.64119334 11.9321859,1.99942628 11.9204819,1.35960987 C11.9107286,0.760757315 11.5108434,0.146299484 10.8905336,0.0370625359 C10.755938,0.0136546185 10.6310958,0.00390131956 10.4984509,0.00390131956 C10.2156053,0.00390131956 9.93275961,0.00390131956 9.64991394,0.00390131956 C8.74675846,0.00390131956 7.84165232,0.00390131956 6.93849684,0.00390131956 C6.60298336,0.00390131956 6.26551922,0.00390131956 5.93000574,0.00390131956 C5.85588067,0.00390131956 5.78175559,0.00390131956 5.70567986,0.00390131956 C5.31944923,0.00585197935 4.91761331,0.159954102 4.65232358,0.44865175 C4.41824441,0.704188181 4.28364888,1.01239243 4.27389558,1.35960987 C4.27389558,1.38886976 4.27389558,1.41812966 4.27389558,1.4454389 C4.27389558,1.62294894 4.27389558,1.79850832 4.27389558,1.97601836 C4.27389558,2.38565691 4.27389558,2.79334481 4.27389558,3.20298336 C4.27389558,3.22834194 4.27389558,3.25565118 4.27389558,3.28100975 C4.27389558,3.68869765 4.63281698,4.08078026 5.0541595,4.06127367 C5.47550201,4.03786575 5.83247275,3.71405622 5.83247275,3.27710843 L5.83247275,3.27710843 Z" id="Path"></path>
                        <path d="M5.62960413,5.9319564 C5.62960413,6.16603557 5.62960413,6.40011474 5.62960413,6.63224326 C5.62960413,7.19403328 5.62960413,7.75387263 5.62960413,8.31566265 C5.62960413,8.99449225 5.62960413,9.67332186 5.62960413,10.3521515 C5.62960413,10.9393001 5.62960413,11.5264487 5.62960413,12.1135972 C5.62960413,12.3983936 5.62375215,12.6831899 5.62960413,12.9679862 C5.62960413,12.9718876 5.62960413,12.9757889 5.62960413,12.9796902 C5.62960413,13.3873781 5.98852553,13.7794607 6.40986804,13.7599541 C6.83316122,13.7404475 7.19013196,13.416638 7.19013196,12.9796902 C7.19013196,12.745611 7.19013196,12.5115318 7.19013196,12.2794033 C7.19013196,11.7176133 7.19013196,11.157774 7.19013196,10.5959839 C7.19013196,9.91715433 7.19013196,9.23832473 7.19013196,8.55949512 C7.19013196,7.97234653 7.19013196,7.38519793 7.19013196,6.79804934 C7.19013196,6.51325301 7.19598394,6.22845668 7.19013196,5.94366036 C7.19013196,5.93975904 7.19013196,5.93585772 7.19013196,5.9319564 C7.19013196,5.5242685 6.83121056,5.13218589 6.40986804,5.15169248 C5.98657487,5.17119908 5.62960413,5.49500861 5.62960413,5.9319564 L5.62960413,5.9319564 Z" id="Path"></path>
                        <path d="M9.06081469,5.9319564 C9.06081469,6.16603557 9.06081469,6.40011474 9.06081469,6.63224326 C9.06081469,7.19403328 9.06081469,7.75387263 9.06081469,8.31566265 C9.06081469,8.99449225 9.06081469,9.67332186 9.06081469,10.3521515 C9.06081469,10.9393001 9.06081469,11.5264487 9.06081469,12.1135972 C9.06081469,12.3983936 9.05496271,12.6831899 9.06081469,12.9679862 C9.06081469,12.9718876 9.06081469,12.9757889 9.06081469,12.9796902 C9.06081469,13.3873781 9.41973609,13.7794607 9.8410786,13.7599541 C10.2643718,13.7404475 10.6213425,13.416638 10.6213425,12.9796902 C10.6213425,12.745611 10.6213425,12.5115318 10.6213425,12.2794033 C10.6213425,11.7176133 10.6213425,11.157774 10.6213425,10.5959839 C10.6213425,9.91715433 10.6213425,9.23832473 10.6213425,8.55949512 C10.6213425,7.97234653 10.6213425,7.38519793 10.6213425,6.79804934 C10.6213425,6.51325301 10.6271945,6.22845668 10.6213425,5.94366036 C10.6213425,5.93975904 10.6213425,5.93585772 10.6213425,5.9319564 C10.6213425,5.5242685 10.2624211,5.13218589 9.8410786,5.15169248 C9.41778543,5.17119908 9.06081469,5.49500861 9.06081469,5.9319564 L9.06081469,5.9319564 Z" id="Path"></path>
                    </g>
                </g>
                <circle id="Oval" stroke="#FF7979" stroke-width="2" cx="14.5" cy="14.5" r="14.5"></circle>
            </g>
        </g>
    </g>
</svg>