<?xml version="1.0" encoding="UTF-8"?>
<svg width="16px" height="4px" viewBox="0 0 16 4" version="1.1" xmlns="http://www.w3.org/2000/svg" xmlns:xlink="http://www.w3.org/1999/xlink">
    <title>dots</title>
    <defs>
        <path d="M2,0 C3.1045695,0 4,0.8954305 4,2 C4,3.1045695 3.1045695,4 2,4 C0.8954305,4 0,3.1045695 0,2 C0,0.8954305 0.8954305,0 2,0 Z M8,0 C9.1045695,0 10,0.8954305 10,2 C10,3.1045695 9.1045695,4 8,4 C6.8954305,4 6,3.1045695 6,2 C6,0.8954305 6.8954305,0 8,0 Z M14,0 C15.1045695,0 16,0.8954305 16,2 C16,3.1045695 15.1045695,4 14,4 C12.8954305,4 12,3.1045695 12,2 C12,0.8954305 12.8954305,0 14,0 Z" id="path-1"></path>
    </defs>
    <g id="Page-1" stroke="none" stroke-width="1" fill="none" fill-rule="evenodd">
        <g id="Desktop-HD-Copy" transform="translate(-1320.000000, -382.000000)">
            <g id="Group-14" transform="translate(80.000000, 309.000000)">
                <g id="dots" transform="translate(0.000000, 50.000000)">
                    <g transform="translate(1240.000000, 23.000000)">
                        <mask id="mask-2" fill="white">
                            <use xlink:href="#path-1"></use>
                        </mask>
                        <use id="Mask" fill="#000000" fill-rule="nonzero" xlink:href="#path-1"></use>
                        <g id="Icon-ðŸ–" style="mix-blend-mode: screen;" mask="url(#mask-2)" fill="#777C7F">
                            <g transform="translate(-4.000000, -10.000000)">
                                <rect x="0" y="0" width="24" height="24"></rect>
                            </g>
                        </g>
                    </g>
                </g>
            </g>
        </g>
    </g>
</svg>