<svg width="30" height="30" viewBox="0 0 30 30" fill="none" xmlns="http://www.w3.org/2000/svg">
<g clip-path="url(#clip0)">
<path d="M26.0396 3.96704H3.96035C1.77662 3.96704 0 5.74366 0 7.92739V18.2493C0 20.4327 1.77662 22.209 3.96035 22.209H10.6158L14.1823 25.7754C14.5253 26.1185 15.082 26.1186 15.4253 25.7754L18.9911 22.209H26.0396C28.2234 22.209 30 20.4327 30 18.2493V7.92739C30 5.74366 28.2234 3.96704 26.0396 3.96704ZM28.2422 18.2493C28.2422 19.4635 27.2541 20.4512 26.0396 20.4512H18.627C18.3938 20.4512 18.1703 20.5439 18.0054 20.7087L14.8037 23.911L11.6014 20.7087L11.5879 20.6952C11.378 20.4853 11.0885 20.4044 10.8166 20.4512H3.96035C2.74588 20.4512 1.75781 19.4635 1.75781 18.2493V7.92739C1.75781 6.71292 2.74588 5.72485 3.96035 5.72485H26.0396C27.2541 5.72485 28.2422 6.71292 28.2422 7.92739V18.2493Z" fill="#989898"/>
<path d="M15.759 7.48267H14.2409C12.8717 7.48267 11.7578 8.59659 11.7578 9.96581V16.2104C11.7578 17.5797 12.8717 18.6936 14.2409 18.6936H15.759C17.1282 18.6936 18.2421 17.5797 18.2421 16.2104V9.96587C18.2421 8.59665 17.1282 7.48267 15.759 7.48267ZM16.4843 16.2104C16.4843 16.6104 16.159 16.9358 15.759 16.9358H14.2409C13.841 16.9358 13.5156 16.6104 13.5156 16.2104V9.96587C13.5156 9.56591 13.841 9.24054 14.2409 9.24054H15.759C16.159 9.24054 16.4843 9.56591 16.4843 9.96587V16.2104Z" fill="#989898"/>
<path d="M7.50328 12.2092H6.01236C5.6049 12.2092 5.27344 11.8777 5.27344 11.4703V9.97941C5.27344 9.57194 5.6049 9.24048 6.01236 9.24048H8.94533C9.43072 9.24048 9.82424 8.84696 9.82424 8.36157C9.82424 7.87618 9.43072 7.48267 8.94533 7.48267H6.01236C4.63564 7.48261 3.51562 8.60269 3.51562 9.97935V11.4703C3.51562 12.847 4.63564 13.9669 6.01236 13.9669H7.50328C7.91074 13.9669 8.24215 14.2984 8.24215 14.7059V16.1968C8.24215 16.6043 7.91068 16.9357 7.50328 16.9357H4.57031C4.08492 16.9357 3.69141 17.3292 3.69141 17.8146C3.69141 18.3 4.08492 18.6935 4.57031 18.6935H7.50328C8.88 18.6935 9.99996 17.5735 9.99996 16.1968V14.7059C10 13.3292 8.88 12.2092 7.50328 12.2092Z" fill="#989898"/>
<path d="M23.9876 12.2092H22.4967C22.0892 12.2092 21.7578 11.8777 21.7578 11.4703V9.9794C21.7578 9.57194 22.0893 9.24048 22.4967 9.24048H25.4296C25.915 9.24048 26.3086 8.84696 26.3086 8.36157C26.3086 7.87618 25.915 7.48267 25.4296 7.48267H22.4967C21.12 7.48267 20 8.60268 20 9.9794V11.4703C20 12.847 21.12 13.967 22.4967 13.967H23.9876C24.3951 13.967 24.7265 14.2985 24.7265 14.7059V16.1968C24.7265 16.6043 24.3951 16.9358 23.9876 16.9358H21.0546C20.5692 16.9358 20.1757 17.3293 20.1757 17.8147C20.1757 18.3001 20.5692 18.6936 21.0546 18.6936H23.9876C25.3643 18.6936 26.4843 17.5736 26.4843 16.1968V14.7059C26.4843 13.3292 25.3643 12.2092 23.9876 12.2092Z" fill="#989898"/>
</g>
<defs>
<clipPath id="clip0">
<rect width="30" height="30" fill="white"/>
</clipPath>
</defs>
</svg>
