<svg width="30" height="30" viewBox="0 0 30 30" fill="none" xmlns="http://www.w3.org/2000/svg">
<g clip-path="url(#clip0)">
<path d="M15.7426 30C13.8974 30.0001 12.0525 29.2978 10.6478 27.893L3.38473 20.6299C2.02395 19.2691 1.27447 17.4599 1.27441 15.5354C1.27436 13.611 2.02371 11.8018 3.38437 10.4411C3.70682 10.1187 4.11732 9.61084 4.96061 9.61084C5.44172 9.61084 5.894 9.79822 6.23414 10.1384L9.02027 12.9246C9.64664 13.5509 9.72545 14.5292 9.20766 15.2508C8.95002 15.6099 8.77775 15.9851 8.70955 16.3359C8.59893 16.9049 8.76088 17.3971 9.20455 17.8409L13.4369 22.0733C13.8806 22.517 14.373 22.6789 14.942 22.5683C15.2927 22.5 15.6679 22.3278 16.027 22.0702C16.7486 21.5524 17.7269 21.6311 18.3533 22.2575L21.1394 25.0437C21.4796 25.3838 21.6669 25.8361 21.6669 26.3172C21.6669 27.1567 21.1641 27.5661 20.8366 27.8934C19.4323 29.2977 17.5873 29.9999 15.7426 30ZM4.93014 11.3815L4.62744 11.6842C3.59883 12.7128 3.03234 14.0805 3.0324 15.5354C3.03246 16.9903 3.59906 18.3581 4.62785 19.3869L11.8909 26.6499C12.9528 27.7118 14.3479 28.2428 15.7426 28.2428C17.1374 28.2429 18.5318 27.7121 19.5936 26.6503L19.8963 26.3476C19.9434 26.3 20.0544 26.4448 17.1101 23.5006C17.0951 23.4856 17.0712 23.4847 17.0519 23.4985C16.4887 23.9026 15.8752 24.1777 15.2777 24.294C14.124 24.5181 13.0576 24.1802 12.1938 23.3164L7.96142 19.084C7.09764 18.2202 6.75955 17.1538 6.98385 16.0004C7.1001 15.4027 7.37514 14.7892 7.77932 14.226C7.79309 14.2067 7.79226 14.1827 7.77721 14.1677C4.91707 11.3075 4.97736 11.3343 4.93014 11.3815Z" fill="#989898"/>
<path d="M19.6786 17.883C19.7372 17.883 19.3065 17.9249 19.0077 17.572L16.0387 14.0647H12.7773C11.5942 14.0647 10.6316 13.1021 10.6316 11.919V2.1457C10.6316 0.962519 11.5942 0 12.7773 0H26.5799C27.7631 0 28.7256 0.962578 28.7256 2.1457V11.9189C28.7256 13.102 27.763 14.0646 26.5799 14.0646H23.3185L20.3495 17.572C20.1825 17.7693 19.9371 17.883 19.6786 17.883ZM12.7774 1.75799C12.5636 1.75799 12.3897 1.93195 12.3897 2.1457V11.9189C12.3897 12.1327 12.5636 12.3066 12.7774 12.3066H16.4463C16.7048 12.3066 16.9502 12.4204 17.1172 12.6176L19.6786 15.6435L22.2401 12.6176C22.4071 12.4203 22.6525 12.3065 22.911 12.3065H26.5799C26.7937 12.3065 26.9676 12.1326 26.9676 11.9188V2.1457C26.9676 1.93195 26.7937 1.75799 26.5799 1.75799H12.7774Z" fill="#989898"/>
<path d="M19.6786 9.12657C19.1931 9.12657 18.7996 8.73299 18.7996 8.24754V3.80895C18.7996 3.32351 19.1931 2.92993 19.6786 2.92993C20.164 2.92993 20.5576 3.32351 20.5576 3.80895V8.24754C20.5576 8.73299 20.164 9.12657 19.6786 9.12657Z" fill="#989898"/>
<path d="M19.6786 12.0539C20.1641 12.0539 20.5576 11.6604 20.5576 11.1749C20.5576 10.6895 20.1641 10.2959 19.6786 10.2959C19.1931 10.2959 18.7996 10.6895 18.7996 11.1749C18.7996 11.6604 19.1931 12.0539 19.6786 12.0539Z" fill="#989898"/>
</g>
<defs>
<clipPath id="clip0">
<rect width="30" height="30" fill="white"/>
</clipPath>
</defs>
</svg>
