<svg width="30" height="30" viewBox="0 0 30 30" fill="none" xmlns="http://www.w3.org/2000/svg">
<path d="M25.1812 2.02148H4.78952C2.65749 2.02148 0.922852 3.75578 0.922852 5.88815V18.3674C0.922852 20.495 2.64994 22.2265 4.77579 22.2341V27.897L12.9141 22.2341H25.1812C27.3132 22.2341 29.0478 20.4994 29.0478 18.3674V5.88815C29.0478 3.75578 27.3132 2.02148 25.1812 2.02148ZM27.3999 18.3674C27.3999 19.5907 26.4046 20.5861 25.1812 20.5861H12.397L6.42374 24.7427V20.5861H4.78952C3.56609 20.5861 2.5708 19.5907 2.5708 18.3674V5.88815C2.5708 4.66455 3.56609 3.66943 4.78952 3.66943H25.1812C26.4046 3.66943 27.3999 4.66455 27.3999 5.88815V18.3674Z" fill="#989898"/>
<path d="M8.45044 7.84448H21.5204V9.49243H8.45044V7.84448Z" fill="#989898"/>
<path d="M8.45044 11.3601H21.5204V13.0081H8.45044V11.3601Z" fill="#989898"/>
<path d="M8.45044 14.8757H21.5204V16.5237H8.45044V14.8757Z" fill="#989898"/>
</svg>
